<svg viewBox="0 0 50 50" xmlns="http://www.w3.org/2000/svg">
<path d="M22.7,48.8 V45 c0,-3,-0.6,-8.3,-1.9,-15.9 c-0.6,-3.6,-1.5,-7.4,-2.9,-11.2 c-1.4,-4,-2.8,-7.1,-4.2,-9.3 c-1.1,-1.7,-2.5,-2.6,-4.1,-2.6 c-1.8,0,-3,0.7,-3.8,2.1 c-0.6,1.3,-1,2.7,-1,4.2 c0,3.2,1.1,6,3.4,8.6 H2.9 c-1.8,-2.8,-2.8,-5.8,-2.8,-8.9 C0.1,8.5,1,6,2.8,4.1 c1.8,-1.9,4,-2.9,6.6,-2.9 c3.3,0,5.9,1.4,7.8,4.1 c2.1,3.1,3.9,6.9,5.3,11.3 c1,3.2,1.8,6.8,2.5,10.7 c0.7,-3.9,1.5,-7.5,2.5,-10.7 c1.3,-4.3,3.1,-8.1,5.3,-11.3 c1.9,-2.7,4.5,-4.1,7.8,-4.1 c2.6,0,4.8,1,6.6,2.9 c1.7,1.9,2.6,4.4,2.6,7.7 c0,3.1,-0.9,6.1,-2.8,8.9 h-5.3 c2.3,-2.6,3.4,-5.4,3.4,-8.6 c0,-1.5,-0.3,-2.9,-1,-4.2 c-0.7,-1.4,-2,-2.1,-3.8,-2.1 c-1.6,0,-2.9,0.9,-4.1,2.6 c-1.5,2.3,-2.9,5.4,-4.2,9.3 c-1.3,3.9,-2.3,7.6,-2.9,11.2 C28,36.7,27.3,42,27.3,45 v3.8 H22.7" fill="black" stroke="black" stroke-width="0"/>
</svg>
